<svg width="18" height="14" viewBox="0 0 18 14" fill="none" xmlns="http://www.w3.org/2000/svg">
<path fill-rule="evenodd" clip-rule="evenodd" d="M9.00236 0C12.7247 0.00260483 16.0673 2.51974 17.9447 6.73436C18.0184 6.89847 18.0184 7.08428 17.9447 7.24838C16.0682 11.4639 12.7247 13.981 9.00236 13.9836H8.99696C5.27461 13.981 1.93205 11.4639 0.0546743 7.24838C-0.0182248 7.08428 -0.0182248 6.89847 0.0546743 6.73436C1.93205 2.51974 5.27551 0.00260483 8.99696 0H9.00236ZM8.99966 1.30242C5.9073 1.30328 3.08674 3.42449 1.41276 6.99137C3.08674 10.5591 5.9064 12.6803 8.99966 12.6812C12.0929 12.6803 14.9126 10.5591 16.5866 6.99137C14.9126 3.42449 12.0929 1.30328 8.99966 1.30242ZM8.99939 3.59536C10.9407 3.59536 12.5201 5.11919 12.5201 6.99207C12.5201 8.86407 10.9407 10.387 8.99939 10.387C7.05812 10.387 5.47954 8.86407 5.47954 6.99207C5.47954 5.11919 7.05812 3.59536 8.99939 3.59536ZM8.99939 4.89778C7.80241 4.89778 6.82952 5.83726 6.82952 6.99207C6.82952 8.14601 7.80241 9.08462 8.99939 9.08462C10.1964 9.08462 11.1702 8.14601 11.1702 6.99207C11.1702 5.83726 10.1964 4.89778 8.99939 4.89778Z" fill="black"/>
</svg>
